grf
version=1
nRows=41
nColumns=10
inDegrees=yes
endheader
time	ground_force_3_vx	ground_force_3_vy	ground_force_3_vz	ground_force_3_px	ground_force_3_py	ground_force_3_pz	ground_moment_3_mx	ground_moment_3_my	ground_moment_3_mz
0.247000	-14.517690	212.512883	-9.215289	0.875029	0.000000	-0.234961	-0.000000	0.036125	-0.000000
0.248000	-14.207632	210.696553	-9.140759	0.875681	0.000000	-0.235052	-0.000000	0.030651	-0.000000
0.249000	-13.907425	208.924065	-9.064281	0.876323	0.000000	-0.235144	-0.000000	0.025390	-0.000000
0.250000	-13.616953	207.195806	-8.985928	0.876951	0.000000	-0.235236	0.000000	0.020347	-0.000000
0.251000	-13.336091	205.512119	-8.905772	0.877562	0.000000	-0.235327	0.000000	0.015530	-0.000000
0.252000	-13.064706	203.873309	-8.823889	0.878157	0.000000	-0.235416	0.000000	0.010945	-0.000000
0.253000	-12.802659	202.279639	-8.740353	0.878736	0.000000	-0.235504	0.000000	0.006599	-0.000000
0.254000	-12.549806	200.731332	-8.655241	0.879299	0.000000	-0.235590	0.000000	0.002496	-0.000000
0.255000	-12.305994	199.228571	-8.568629	0.879843	0.000000	-0.235674	0.000000	-0.001357	-0.000000
0.256000	-12.071066	197.771501	-8.480594	0.880366	0.000000	-0.235755	0.000000	-0.004955	-0.000000
0.257000	-11.844860	196.360230	-8.391213	0.880873	0.000000	-0.235831	0.000000	-0.008294	-0.000000
0.258000	-11.627206	194.994827	-8.300565	0.881364	0.000000	-0.235904	0.000000	-0.011367	0.000000
0.259000	-11.417930	193.675325	-8.208727	0.881838	0.000000	-0.235972	0.000000	-0.014170	0.000000
0.260000	-11.216855	192.401723	-8.115779	0.882293	0.000000	-0.236034	0.000000	-0.016700	0.000000
0.261000	-11.023797	191.173982	-8.021799	0.882730	0.000000	-0.236093	0.000000	-0.018952	0.000000
0.262000	-10.838568	189.992031	-7.926867	0.883152	0.000000	-0.236150	0.000000	-0.020922	0.000000
0.263000	-10.660977	188.855765	-7.831063	0.883559	0.000000	-0.236207	0.000000	-0.022606	0.000000
0.264000	-10.490827	187.765047	-7.734466	0.883950	0.000000	-0.236266	0.000000	-0.024003	0.000000
0.265000	-10.327920	186.719708	-7.637156	0.884324	0.000000	-0.236328	0.000000	-0.025108	0.000000
0.266000	-10.172053	185.719550	-7.539213	0.884686	0.000000	-0.236392	0.000000	-0.025919	0.000000
0.267000	-10.023020	184.764343	-7.440717	0.885038	0.000000	-0.236459	0.000000	-0.026433	0.000000
0.268000	-9.880612	183.853830	-7.341748	0.885379	0.000000	-0.236530	0.000000	-0.026649	0.000000
0.269000	-9.744619	182.987725	-7.242386	0.885710	0.000000	-0.236605	0.000000	-0.026564	0.000000
0.270000	-9.614824	182.165718	-7.142710	0.886035	0.000000	-0.236686	0.000000	-0.026176	0.000000
0.271000	-9.491014	181.387470	-7.042800	0.886355	0.000000	-0.236774	0.000000	-0.025486	0.000000
0.272000	-9.372970	180.652619	-6.942736	0.886672	0.000000	-0.236867	0.000000	-0.024490	0.000000
0.273000	-9.260470	179.960779	-6.842597	0.886989	0.000000	-0.236969	0.000000	-0.023189	0.000000
0.274000	-9.153295	179.311542	-6.742461	0.887306	0.000000	-0.237077	0.000000	-0.021582	0.000000
0.275000	-9.051221	178.704477	-6.642406	0.887624	0.000000	-0.237188	0.000000	-0.019669	0.000000
0.276000	-8.954023	178.139133	-6.542511	0.887944	0.000000	-0.237300	0.000000	-0.017450	0.000000
0.277000	-8.861477	177.615041	-6.442854	0.888264	0.000000	-0.237413	0.000000	-0.014924	0.000000
0.278000	-8.773356	177.131711	-6.343511	0.888583	0.000000	-0.237525	0.000000	-0.012093	0.000000
0.279000	-8.689434	176.688637	-6.244558	0.888901	0.000000	-0.237636	0.000000	-0.008956	0.000000
0.280000	-8.609483	176.285296	-6.146072	0.889217	0.000000	-0.237747	0.000000	-0.005516	0.000000
0.281000	-8.533275	175.921150	-6.048128	0.889531	0.000000	-0.237857	-0.000000	-0.001772	0.000000
0.282000	-8.460584	175.595647	-5.950800	0.889843	0.000000	-0.237968	-0.000000	0.002273	0.000000
0.283000	-8.391180	175.308220	-5.854162	0.890153	0.000000	-0.238077	-0.000000	0.006618	0.000000
0.284000	-8.324837	175.058291	-5.758287	0.890463	0.000000	-0.238183	-0.000000	0.011260	0.000000
0.285000	-8.261327	174.845270	-5.663247	0.890773	0.000000	-0.238286	-0.000000	0.016199	0.000000
0.286000	-8.200422	174.668559	-5.569113	0.891083	0.000000	-0.238384	-0.000000	0.021432	0.000000
0.287000	-8.141898	174.527547	-5.475956	0.891393	0.000000	-0.238477	-0.000000	0.026956	0.000000
